#!OML:ASF C:\Vicon Data\Big\jianyuan-13\jianyuan\Session 1\Capture.male.ASF
:FULLY-SPECIFIED
:DEGREES
98
root -8.813581 17.735983 -14.914168 -1.118647 -7.237732 1.049767
lowerback -6.512202 6.331207 -0.006492 
upperback 2.991612 8.601818 -1.900086 
thorax 7.063983 4.275229 -0.889665 
lowerneck -2.532950 -4.593919 3.535228 
upperneck 0.989393 -6.214916 -1.554138 
head 0.562061 -3.108062 -1.130925 
rclavicle 0.000000 0.000000 
rhumerus -3.254339 6.852373 -86.112889 
rradius 62.671301 
rwrist 9.511178 
rhand -17.723510 -18.694759 
rfingers 0.000000 
rthumb 8.537179 -48.502187 
lclavicle 0.000000 0.000000 
lhumerus -78.651772 36.266816 22.842760 
lradius 21.900977 
lwrist -71.169611 
lhand -18.888134 1.536546 
lfingers 0.000000 
lthumb 7.413114 31.386667 
rfemur 2.879957 8.061960 25.777153 
rtibia 26.978755 
rfoot -21.469962 -2.905445 
rtoes -26.508962 
lfemur -52.352451 1.894810 -13.368243 
ltibia 27.258523 
lfoot -2.795622 6.218453 
ltoes -45.817263 
99
root -8.806654 17.701617 -14.742092 -0.724239 -7.751504 0.926202
lowerback -7.046565 6.437607 0.093241 
upperback 2.797470 8.736194 -1.920480 
thorax 7.185274 4.341090 -0.895263 
lowerneck -2.348896 -4.529349 3.616203 
upperneck 0.907106 -6.122024 -1.759494 
head 0.499778 -3.063404 -1.200754 
rclavicle 0.000000 0.000000 
rhumerus -3.676443 7.044862 -86.505963 
rradius 62.543798 
rwrist 9.461808 
rhand -17.722608 -18.693003 
rfingers 0.000000 
rthumb 8.538059 -48.500370 
lclavicle 0.000000 0.000000 
lhumerus -79.116932 36.224122 22.334983 
lradius 21.947910 
lwrist -71.250167 
lhand -18.749677 1.414540 
lfingers 0.000000 
lthumb 7.546754 31.259925 
rfemur 3.075031 8.275326 25.801933 
rtibia 26.996266 
rfoot -21.753482 -2.695357 
rtoes -26.491892 
lfemur -51.652112 1.552673 -12.680378 
ltibia 27.065337 
lfoot -2.906110 6.282897 
ltoes -44.515530 
100
root -8.797832 17.674440 -14.571976 -0.321387 -8.273031 0.866852
lowerback -7.604906 6.528982 0.194113 
upperback 2.614207 8.850367 -1.948834 
thorax 7.332854 4.396713 -0.907399 
lowerneck -2.245737 -4.419296 3.561069 
upperneck 0.894592 -5.968579 -1.877709 
head 0.481025 -2.987691 -1.224374 
rclavicle 0.000000 0.000000 
rhumerus -4.195439 7.607622 -86.767548 
rradius 62.528445 
rwrist 9.218167 
rhand -17.692198 -18.829834 
rfingers 0.000000 
rthumb 8.567343 -48.635965 
lclavicle 0.000000 0.000000 
lhumerus -79.463272 36.158806 22.098653 
lradius 21.984408 
lwrist -71.196296 
lhand -18.756433 1.414842 
lfingers 0.000000 
lthumb 7.540226 31.260411 
rfemur 3.247118 8.566759 25.764830 
rtibia 27.047400 
rfoot -22.074152 -2.546658 
rtoes -26.382492 
lfemur -50.849776 1.193123 -12.093949 
ltibia 26.687723 
lfoot -3.040498 6.513880 
ltoes -44.389146 
101
root -8.794240 17.643892 -14.396655 0.077580 -8.818754 0.797108
lowerback -8.179215 6.635638 0.210627 
upperback 2.437589 8.992753 -1.974904 
thorax 7.484007 4.461775 -0.864103 
lowerneck -2.071500 -4.342161 3.589761 
upperneck 0.761817 -5.859879 -1.968286 
head 0.410510 -2.934249 -1.249501 
rclavicle 0.000000 0.000000 
rhumerus -4.705731 7.929301 -87.126085 
rradius 62.405693 
rwrist 9.212064 
rhand -17.622905 -18.918611 
rfingers 0.000000 
rthumb 8.634284 -48.721976 
lclavicle 0.000000 0.000000 
lhumerus -79.680447 36.079202 21.969576 
lradius 22.010424 
lwrist -70.946322 
lhand -18.825334 1.371989 
lfingers 0.000000 
lthumb 7.473769 31.220001 
rfemur 3.369356 8.505084 25.632055 
rtibia 27.152058 
rfoot -22.323644 -2.071175 
rtoes -26.184024 
lfemur -49.938941 1.000062 -11.627927 
ltibia 26.163628 
lfoot -3.102792 6.668006 
ltoes -44.036137 
102
root -8.783654 17.612810 -14.222345 0.527062 -9.323792 0.612955
lowerback -8.728380 6.729847 0.389407 
upperback 2.259149 9.094786 -1.940305 
thorax 7.632564 4.512798 -0.852626 
lowerneck -2.085921 -4.267230 3.591897 
upperneck 0.762833 -5.758293 -2.175405 
head 0.410253 -2.885153 -1.314947 
rclavicle 0.000000 0.000000 
rhumerus -5.278556 8.534750 -87.332399 
rradius 62.347208 
rwrist 9.284987 
rhand -17.557628 -19.141672 
rfingers 0.000000 
rthumb 8.697255 -48.942473 
lclavicle 0.000000 0.000000 
lhumerus -79.989555 36.027919 21.897324 
lradius 22.144570 
lwrist -70.709927 
lhand -19.030685 1.640033 
lfingers 0.000000 
lthumb 7.275499 31.494945 
rfemur 3.496832 8.384707 25.603798 
rtibia 27.192379 
rfoot -22.537775 -1.756657 
rtoes -27.013878 
lfemur -49.092513 0.734155 -11.061892 
ltibia 25.628705 
lfoot -3.325393 7.095169 
ltoes -42.882625 
103
root -8.775997 17.583062 -14.045396 0.972684 -9.767852 0.430964
lowerback -9.256122 6.808764 0.511115 
upperback 2.080376 9.181162 -1.911098 
thorax 7.759627 4.553808 -0.820328 
lowerneck -1.927372 -4.157359 3.578108 
upperneck 0.576004 -5.606129 -2.298392 
head 0.327532 -2.810320 -1.343022 
rclavicle 0.000000 0.000000 
rhumerus -5.827870 8.793414 -87.643344 
rradius 62.142189 
rwrist 9.746141 
rhand -17.332740 -19.002717 
rfingers 0.000000 
rthumb 8.914307 -48.794349 
lclavicle 0.000000 0.000000 
lhumerus -80.317821 36.033288 21.688148 
lradius 22.248322 
lwrist -70.269073 
lhand -19.110616 1.668083 
lfingers 0.000000 
lthumb 7.198394 31.525676 
rfemur 3.722641 8.607860 25.693461 
rtibia 27.176308 
rfoot -22.835343 -1.818379 
rtoes -27.401204 
lfemur -48.202994 0.574801 -10.690767 
ltibia 25.028077 
lfoot -3.554933 7.527299 
ltoes -43.205362 
104
root -8.761305 17.549513 -13.870155 1.471807 -10.085557 0.309219
lowerback -9.782886 6.864793 0.665819 
upperback 1.903212 9.238220 -1.971446 
thorax 7.907559 4.584173 -0.902230 
lowerneck -1.938746 -4.064809 3.631692 
upperneck 0.421403 -5.485363 -2.329525 
head 0.283102 -2.750903 -1.359297 
rclavicle 0.000000 0.000000 
rhumerus -6.426922 9.190506 -87.895034 
rradius 62.003227 
rwrist 10.113617 
rhand -17.070544 -18.833499 
rfingers 0.000000 
rthumb 9.167278 -48.614268 
lclavicle 0.000000 0.000000 
lhumerus -80.433879 36.043460 21.666995 
lradius 22.320468 
lwrist -69.597587 
lhand -19.045681 1.535358 
lfingers 0.000000 
lthumb 7.261053 31.390736 
rfemur 3.755046 8.097481 25.467198 
rtibia 27.246440 
rfoot -22.962408 -1.232704 
rtoes -27.387154 
lfemur -47.428330 0.375792 -10.499443 
ltibia 24.405900 
lfoot -4.041550 8.070768 
ltoes -42.632176 
105
root -8.749825 17.521424 -13.697388 2.025392 -10.403277 0.042755
lowerback -10.305699 6.895830 0.860672 
upperback 1.710698 9.245660 -1.921220 
thorax 8.021668 4.589210 -0.901266 
lowerneck -2.250305 -3.927281 3.409460 
upperneck 0.594119 -5.306093 -2.231872 
head 0.402455 -2.661689 -1.301341 
rclavicle 0.000000 0.000000 
rhumerus -7.010960 9.464373 -88.205804 
rradius 61.744509 
rwrist 10.864114 
rhand -16.913110 -18.653775 
rfingers 0.000000 
rthumb 9.319158 -48.427749 
lclavicle 0.000000 0.000000 
lhumerus -80.537443 35.991786 21.821729 
lradius 22.352858 
lwrist -68.612493 
lhand -19.085301 1.442955 
lfingers 0.000000 
lthumb 7.222780 31.299721 
rfemur 3.784040 7.830706 25.461101 
rtibia 27.314017 
rfoot -23.105044 -0.813495 
rtoes -27.211839 
lfemur -46.701049 0.364774 -10.250653 
ltibia 23.808656 
lfoot -4.374822 8.580878 
ltoes -42.334709 
106
root -8.737807 17.493018 -13.523909 2.524172 -10.607707 -0.196767
lowerback -10.759251 6.902141 1.037314 
upperback 1.519619 9.223180 -1.906781 
thorax 8.099347 4.580631 -0.941981 
lowerneck -2.259922 -3.864784 3.654658 
upperneck 0.449383 -5.228965 -2.451429 
head 0.349976 -2.625030 -1.409863 
rclavicle 0.000000 0.000000 
rhumerus -7.677692 9.902175 -88.523140 
rradius 61.564151 
rwrist 10.976955 
rhand -16.866307 -18.519579 
rfingers 0.000000 
rthumb 9.364375 -48.291390 
lclavicle 0.000000 0.000000 
lhumerus -81.021348 36.079032 21.310229 
lradius 22.424688 
lwrist -68.559016 
lhand -19.366221 1.479744 
lfingers 0.000000 
lthumb 6.951635 31.345550 
rfemur 3.917704 7.917684 25.588037 
rtibia 27.327109 
rfoot -23.242739 -0.965414 
rtoes -27.222238 
lfemur -45.992980 0.383969 -10.184108 
ltibia 23.225133 
lfoot -4.711577 8.981672 
ltoes -42.306971 
107
root -8.725630 17.458271 -13.364493 3.110184 -10.727491 -0.549936
lowerback -11.090408 6.891952 1.267062 
upperback 1.278410 9.166119 -1.859539 
thorax 8.053881 4.558281 -1.002905 
lowerneck -2.615688 -3.760545 3.574044 
upperneck 0.620907 -5.099051 -2.353825 
head 0.471366 -2.560422 -1.376809 
rclavicle 0.000000 0.000000 
rhumerus -8.337213 10.288433 -88.845943 
rradius 61.223257 
rwrist 10.948289 
rhand -16.672584 -17.926070 
rfingers 0.000000 
rthumb 9.551295 -47.689523 
lclavicle 0.000000 0.000000 
lhumerus -81.253625 36.073595 21.210293 
lradius 22.511575 
lwrist -68.094519 
lhand -19.606811 1.729114 
lfingers 0.000000 
lthumb 6.719367 31.602531 
rfemur 3.869022 7.818775 25.830956 
rtibia 27.399002 
rfoot -23.224323 -1.204632 
rtoes -28.135120 
lfemur -45.457094 0.335927 -9.954480 
ltibia 22.676044 
lfoot -5.036494 9.416161 
ltoes -42.530778 
108
root -8.711559 17.425279 -13.197760 3.555922 -10.758013 -0.804426
lowerback -11.377783 6.824965 1.412650 
upperback 1.098172 9.043208 -1.781129 
thorax 8.026978 4.499718 -1.000868 
lowerneck -2.760315 -3.651241 3.421901 
upperneck 0.557246 -4.954658 -2.257291 
head 0.486292 -2.488771 -1.321965 
rclavicle 0.000000 0.000000 
rhumerus -9.015949 10.718316 -89.150360 
rradius 60.861960 
rwrist 11.398443 
rhand -16.590672 -17.943700 
rfingers 0.000000 
rthumb 9.630263 -47.703556 
lclavicle 0.000000 0.000000 
lhumerus -81.360275 36.022601 21.446982 
lradius 22.613814 
lwrist -66.980825 
lhand -19.356357 1.729936 
lfingers 0.000000 
lthumb 6.961139 31.595511 
rfemur 3.982787 7.240010 25.823632 
rtibia 27.481235 
rfoot -23.138865 -0.934558 
rtoes -28.762496 
lfemur -44.777706 0.221595 -9.870252 
ltibia 22.100920 
lfoot -5.313183 9.724230 
ltoes -42.574644 
